<svg id="Layer_1" data-name="Layer 1" xmlns="http://www.w3.org/2000/svg" viewBox="0 0 85.04 85.04"><defs><style>.cls-1{fill:#36a9e1;}.cls-2{fill:#1d71b8;}</style></defs><path class="cls-1" d="M17.43,38.47V29.71L9.32,34.37V51.11l7.34,4.21L24,51.11V42.26ZM15.88,53.13l-5-2.91V44.11l5,2.91Zm1.55-7.06-6.57-3.8v-7l5-2.91v7l6.58,3.8v7l-5,2.91Z"/><path class="cls-2" d="M39.62,44.31H40.7v-3.5H39.62v-.92h2.1v.7h0a1.71,1.71,0,0,1,.62-.56,1.91,1.91,0,0,1,1-.24,3,3,0,0,1,.45,0,.84.84,0,0,1,.26.07v1s-.07,0-.21-.06a2.22,2.22,0,0,0-.45,0,1.54,1.54,0,0,0-1.22.48,2.09,2.09,0,0,0-.43,1.42v1.6h1.06v.92H39.62Zm6.13.76a1.72,1.72,0,0,1-.71-.75,2.43,2.43,0,0,1-.25-1.14V39.89h1v3.29a1.21,1.21,0,0,0,.15.62.9.9,0,0,0,.41.41,1.26,1.26,0,0,0,.62.15,1.44,1.44,0,0,0,.73-.18,1.26,1.26,0,0,0,.49-.48,1.54,1.54,0,0,0,.17-.73V39.89h1v5.34h-1v-.7h0a1.73,1.73,0,0,1-.67.58,1.94,1.94,0,0,1-.91.22A2,2,0,0,1,45.75,45.07Zm11-5.18h1v.7h0a1.7,1.7,0,0,1,.66-.58,1.92,1.92,0,0,1,.92-.22,2.08,2.08,0,0,1,1,.26,1.72,1.72,0,0,1,.71.75,2.43,2.43,0,0,1,.25,1.14v3.29h-1V41.94a1.23,1.23,0,0,0-.14-.62,1,1,0,0,0-.41-.41,1.28,1.28,0,0,0-.63-.15,1.43,1.43,0,0,0-.72.18,1.22,1.22,0,0,0-.49.49,1.4,1.4,0,0,0-.17.72v3.08h-1Zm17.9,0h1v.7h0a1.74,1.74,0,0,1,.67-.58,1.91,1.91,0,0,1,.91-.22,2,2,0,0,1,1,.26,1.78,1.78,0,0,1,.71.75,2.55,2.55,0,0,1,.25,1.14v3.29h-1V41.94a1.35,1.35,0,0,0-.14-.62,1,1,0,0,0-.41-.41,1.28,1.28,0,0,0-.63-.15,1.4,1.4,0,0,0-.72.18,1.16,1.16,0,0,0-.49.49,1.4,1.4,0,0,0-.18.72v3.08h-1Zm-36.94,0H33.37v.93H36.6v1l-1.84.31a2.22,2.22,0,0,0-1.23.58,1.54,1.54,0,0,0-.44,1.11,1.45,1.45,0,0,0,.23.78,1.61,1.61,0,0,0,.64.57,2.22,2.22,0,0,0,1.69.08,2.52,2.52,0,0,0,.61-.33,1.84,1.84,0,0,0,.39-.41h0v.76h2.22v-.92H37.72Zm-1.12,3a1.55,1.55,0,0,1-.74,1.35,1.45,1.45,0,0,1-.76.21,1.21,1.21,0,0,1-.48-.1.82.82,0,0,1-.31-.27.61.61,0,0,1-.1-.36.6.6,0,0,1,.21-.45A1.27,1.27,0,0,1,35,43l1.56-.28Zm18.19-3H50.44v.93h3.24v1l-1.84.31a2.09,2.09,0,0,0-1.23.58,1.47,1.47,0,0,0-.44,1.11,1.36,1.36,0,0,0,.23.77,1.5,1.5,0,0,0,.64.58,2,2,0,0,0,.93.21,2,2,0,0,0,.75-.13,2.1,2.1,0,0,0,.61-.34,1.82,1.82,0,0,0,.39-.4h0v.76H56v-.92H54.79Zm-1.11,2.95a1.56,1.56,0,0,1-.75,1.36,1.51,1.51,0,0,1-.76.2,1,1,0,0,1-.47-.1.67.67,0,0,1-.31-.26.66.66,0,0,1-.11-.36.58.58,0,0,1,.22-.45,1.32,1.32,0,0,1,.62-.28l1.56-.28Zm19-2.95H68.34v.93h3.24v1l-1.84.31a2.09,2.09,0,0,0-1.23.58,1.47,1.47,0,0,0-.44,1.11,1.41,1.41,0,0,0,.22.77,1.59,1.59,0,0,0,.65.58,2,2,0,0,0,.93.21,2,2,0,0,0,.75-.13,2.1,2.1,0,0,0,.61-.34,1.62,1.62,0,0,0,.39-.4h0v.76h2.23v-.92H72.69Zm-1.11,2.95a1.56,1.56,0,0,1-.75,1.36,1.51,1.51,0,0,1-.76.2,1,1,0,0,1-.47-.1.67.67,0,0,1-.31-.26.66.66,0,0,1-.11-.36.58.58,0,0,1,.22-.45,1.32,1.32,0,0,1,.62-.28l1.56-.28Zm-5.31-3H64.64a2.19,2.19,0,0,0-1.26.37,2.4,2.4,0,0,0-.84,1,3.16,3.16,0,0,0,0,2.73,2.4,2.4,0,0,0,.84,1,2.19,2.19,0,0,0,1.26.37,2.05,2.05,0,0,0,.93-.21,1.76,1.76,0,0,0,.69-.58h0v2h-3v.92h4v-7.6Zm-.18,3.61a1.51,1.51,0,0,1-.52.64A1.49,1.49,0,0,1,64,44a1.53,1.53,0,0,1-.53-.64,2.27,2.27,0,0,1,0-1.77A1.62,1.62,0,0,1,64,41a1.45,1.45,0,0,1,.81-.23h1.5v1.76A2.14,2.14,0,0,1,66.09,43.4ZM32.3,41.24a2.42,2.42,0,0,0-.85-1,2.14,2.14,0,0,0-1.25-.37,2.06,2.06,0,0,0-.94.21,1.76,1.76,0,0,0-.69.58h0V37.86h-1v7.47H30.2A2.14,2.14,0,0,0,31.45,45a2.42,2.42,0,0,0,.85-1,3.26,3.26,0,0,0,0-2.73Zm-.89,2.26a1.58,1.58,0,0,1-.53.64,1.4,1.4,0,0,1-.8.23H28.57V42.61a2.14,2.14,0,0,1,.18-.89,1.46,1.46,0,0,1,.53-.64,1.38,1.38,0,0,1,.81-.24,1.33,1.33,0,0,1,.8.24,1.46,1.46,0,0,1,.53.64,2.14,2.14,0,0,1,.18.89A2.18,2.18,0,0,1,31.41,43.5Z"/><path class="cls-2" d="M28,48.36h.6v.42a1.12,1.12,0,0,1,.19-.24,1,1,0,0,1,.65-.24,1,1,0,0,1,.68.24,1,1,0,0,1,.22.24.83.83,0,0,1,.22-.24,1.25,1.25,0,0,1,.77-.24,1.11,1.11,0,0,1,1.05,1.23v1.71h-.6V49.53a.6.6,0,0,0-.6-.66.7.7,0,0,0-.69.78v1.59h-.6V49.53a.59.59,0,0,0-.6-.66.7.7,0,0,0-.69.78v1.59H28Z"/><path class="cls-2" d="M35.17,50.82a1.29,1.29,0,0,1-.23.24,1.14,1.14,0,0,1-.7.24.88.88,0,0,1-1-.84.91.91,0,0,1,.84-.9l1.05-.18a.55.55,0,0,0-.6-.54A1,1,0,0,0,34,49a1.26,1.26,0,0,0-.2.2l-.39-.39a1.06,1.06,0,0,1,.29-.27,1.41,1.41,0,0,1,.85-.27,1.11,1.11,0,0,1,1.2,1.11v1.83h-.6Zm0-1-.84.15c-.31.05-.45.2-.45.39s.17.39.48.39a.81.81,0,0,0,.81-.84Z"/><path class="cls-2" d="M36.67,51.84l.1,0a.65.65,0,0,0,.26,0,.54.54,0,0,0,.51-.38l.12-.3-1.17-2.88h.66L38,50.49l.81-2.13h.66l-1.26,3.21c-.24.6-.57.93-1.05.93a.85.85,0,0,1-.32,0l-.13-.05Z"/><path class="cls-2" d="M41.89,50.82a1.29,1.29,0,0,1-.23.24,1.14,1.14,0,0,1-.7.24.89.89,0,0,1-1-.84.91.91,0,0,1,.84-.9l1-.18a.55.55,0,0,0-.6-.54,1,1,0,0,0-.55.19,1.26,1.26,0,0,0-.2.2l-.39-.39a1.06,1.06,0,0,1,.29-.27,1.41,1.41,0,0,1,.85-.27,1.11,1.11,0,0,1,1.2,1.11v1.83h-.6Zm0-1-.84.15c-.31.05-.45.2-.45.39s.17.39.48.39a.81.81,0,0,0,.81-.84Z"/><path class="cls-2" d="M43.63,48.36h.6v.42a1,1,0,0,1,.22-.24,1.06,1.06,0,0,1,.68-.24,1.13,1.13,0,0,1,1.14,1.26v1.68h-.6V49.56a.63.63,0,0,0-.66-.69.76.76,0,0,0-.78.81v1.56h-.6Z"/><path class="cls-2" d="M47.65,48.93h-.54v-.57h.33c.19,0,.27-.09.27-.33V47.4h.54v1h.66v.57h-.66v1.35q0,.45.42.45a.52.52,0,0,0,.23,0l.1,0v.57l-.13,0a.89.89,0,0,1-.32,0c-.58,0-.9-.33-.9-1Z"/><path class="cls-2" d="M51.64,50.82a1.29,1.29,0,0,1-.23.24,1.14,1.14,0,0,1-.7.24.88.88,0,0,1-1-.84.91.91,0,0,1,.84-.9l1-.18a.55.55,0,0,0-.6-.54,1,1,0,0,0-.55.19,1.26,1.26,0,0,0-.2.2l-.39-.39a.94.94,0,0,1,.29-.27A1.41,1.41,0,0,1,51,48.3a1.11,1.11,0,0,1,1.2,1.11v1.83h-.6Zm0-1L50.8,50c-.31.05-.45.2-.45.39s.17.39.48.39a.81.81,0,0,0,.81-.84Z"/><path class="cls-2" d="M53.38,48.36H54v.39a1.58,1.58,0,0,1,.22-.23,1,1,0,0,1,.65-.22H55v.63h-.08l-.16,0a.82.82,0,0,0-.78.87v1.47h-.6Z"/><path class="cls-2" d="M57.52,50.82a1.29,1.29,0,0,1-.23.24,1.14,1.14,0,0,1-.7.24.88.88,0,0,1-1-.84.91.91,0,0,1,.84-.9l1.05-.18a.55.55,0,0,0-.6-.54,1,1,0,0,0-.55.19,1.26,1.26,0,0,0-.2.2l-.39-.39a1.06,1.06,0,0,1,.29-.27,1.41,1.41,0,0,1,.85-.27,1.11,1.11,0,0,1,1.2,1.11v1.83h-.6Zm0-1-.84.15c-.31.05-.45.2-.45.39s.17.39.48.39a.81.81,0,0,0,.81-.84Z"/></svg>